<?xml version="1.0" encoding="UTF-8"?>
<!-- Generated by Pixelmator Pro 4.2 -->
<svg width="5069" height="902" viewBox="0 0 5069 902" xmlns="http://www.w3.org/2000/svg">
    <path id="Path" fill="#ffffff" stroke="none" d="M 4239.296875 518.749512 C 4212.077637 486.509888 4177.187988 461.623901 4137.836426 446.391479 C 4088.197754 428.005127 4037.47168 412.710327 3985.9375 400.59436 C 3940.357178 391.419922 3895.859863 377.479126 3853.19165 359.005371 C 3826.685059 348.643433 3809.369385 322.949219 3809.719482 294.492676 C 3809.286133 266.169434 3823.547852 239.637817 3847.404541 224.37207 C 3882.744141 204.127441 3923.320801 194.898926 3963.938965 197.857056 C 4043.546387 199.173584 4121.299805 222.093018 4188.891602 264.165405 L 4246.875488 115.858032 C 4206.861328 90.49292 4163.005859 71.756592 4117.01709 60.374023 C 4067.411621 47.512207 4016.369141 41.033447 3965.118164 41.091797 C 3900.526367 39.26709 3836.284424 51.216309 3776.671631 76.1521 C 3729.778564 95.730103 3689.668701 128.644775 3661.320313 170.817017 C 3635.826172 210.5354 3622.5271 256.853394 3623.060303 304.046265 C 3620.577148 352.684814 3635.596924 400.598511 3665.399414 439.116943 C 3692.322754 471.964966 3727.262207 497.313354 3766.851318 512.699829 C 3816.494141 531.094604 3867.224121 546.406128 3918.750244 558.542847 C 3958.926758 568.150635 3990.816406 576.920898 4014.42334 584.837036 C 4035.663574 591.574097 4055.366699 602.427612 4072.402832 616.785034 C 4087.098145 629.209229 4095.405762 647.595581 4095.018066 666.83606 C 4095.114258 694.059326 4080.477539 719.203613 4056.758301 732.573608 C 4020.360352 751.589111 3979.396484 760.1427 3938.427979 757.292969 C 3889.506104 757.138794 3840.938232 748.997559 3794.636963 733.186035 C 3750.048096 718.853638 3708.129883 697.267456 3670.565674 669.290039 L 3651.325195 653.774414 L 3629.414063 832.713257 C 3667.140869 856.486694 3708.059082 874.752197 3750.944092 886.97229 C 3811.294434 905.121216 3874.00293 914.266479 3937.023926 914.099731 C 4001.799316 915.878906 4066.220215 903.929565 4126.04541 879.039429 C 4173.259277 859.478149 4213.756836 826.584473 4242.575684 784.374512 C 4268.311523 745.172852 4281.839844 699.217407 4281.452637 652.328613 C 4284.052246 604.056641 4269.007324 556.484619 4239.117676 518.487061"/>
    <path id="path1" fill="#ffffff" stroke="none" d="M 1167.688721 739.674805 C 1022.147827 739.674805 904.163574 621.690552 904.163574 476.149658 C 904.163574 330.608765 1022.147827 212.624512 1167.688721 212.624512 C 1313.229614 212.624512 1431.213989 330.608765 1431.213989 476.149658 C 1431.213989 621.690552 1313.229614 739.674805 1167.688721 739.674805 M 1167.688721 39.251953 C 926.008057 39.251953 730.091125 235.173096 730.091125 476.849609 C 730.091125 718.530396 926.008057 914.447266 1167.688721 914.447266 C 1409.365356 914.447266 1605.286377 718.530396 1605.286377 476.849609 L 1605.286377 476.807983 C 1605.261475 235.143921 1409.348633 39.251953 1167.688721 39.251953"/>
    <path id="path2" fill="#ffffff" stroke="none" d="M 3221.839111 53.890137 L 3221.839111 537.19751 C 3221.793213 644.449097 3134.81543 731.356201 3027.563721 731.310425 C 2920.383057 731.260376 2833.500977 644.386597 2833.455078 537.19751 L 2833.455078 59.498291 L 2650.483154 59.498291 L 2650.483154 537.19751 C 2650.483154 745.513672 2819.355957 914.382324 3027.667969 914.382324 C 3235.988281 914.382324 3404.856934 745.513672 3404.856934 537.19751 L 3404.856934 53.890137 Z"/>
    <path id="path3" fill="#ffffff" stroke="none" d="M 1747.236328 53.890137 L 1725.804321 230.68335 L 1998.924805 230.68335 L 1998.924805 901.653931 L 2182.992432 901.653931 L 2182.992432 230.68335 L 2457.037842 230.68335 L 2435.605713 53.890137 Z"/>
    <path id="path4" fill="#ffffff" stroke="none" d="M -0.481552 53.890137 L -0.481552 901.653931 L 617.721497 901.653931 L 639.32843 723.67749 L 183.540283 723.67749 L 183.540283 53.890137 Z"/>
    <path id="path5" fill="#ffffff" stroke="none" d="M 4825.010254 495.895508 C 4714.788086 495.874634 4619.960449 417.912842 4598.632813 309.769653 L 4626.368652 282.029663 L 4732.136719 282.029663 C 4739.273926 320.494019 4769.367676 350.58374 4807.828125 357.720825 L 4807.828125 431.978638 L 4886.806152 431.978638 C 4937.57373 431.962036 4978.717285 390.793701 4978.700684 340.030273 C 4978.687988 310.19873 4964.20166 282.225586 4939.844727 265.005737 C 4981.32959 235.582642 4991.104004 178.107056 4961.685059 136.626343 C 4944.465332 112.348633 4916.575195 97.891235 4886.806152 97.816284 L 4801.940918 97.816284 C 4776.925781 97.807861 4752.910645 107.615601 4735.053223 125.131226 L 4594.066406 266.118164 L 4594.066406 265.322388 C 4594.074707 137.892822 4697.380859 34.595215 4824.810059 34.599365 C 4913.163086 34.603516 4993.757813 85.067017 5032.355469 164.54126 L 5069.482422 164.54126 C 5013.790039 29.262207 4858.970703 -35.250488 4723.695801 20.441895 C 4613.169434 65.943115 4546.811035 179.827759 4561.714355 298.42041 L 4429.588867 430.54541 L 4477.744141 430.54541 L 4569.93457 338.359497 C 4610.394531 478.950684 4757.164551 560.120605 4897.751465 519.660645 C 4974.91748 497.453735 5037.842773 441.444702 5068.844727 367.37439 L 5031.718262 367.37439 C 4992.887207 446.161133 4912.692383 496.070557 4824.855957 496.108032 M 4764.705566 264.739136 C 4764.73877 238.036621 4782.325195 214.538086 4807.932129 206.976074 L 4807.932129 322.660522 C 4782.325195 315.098511 4764.73877 291.599976 4764.705566 264.897461 M 4945.04834 339.742798 C 4944.814941 371.694946 4918.920898 397.518311 4886.96875 397.660034 L 4842.038086 397.660034 L 4842.038086 357.454224 C 4867.611816 352.725342 4890.09375 337.659546 4904.205078 315.819214 L 4856.837402 315.819214 C 4852.229492 318.702393 4847.250488 320.952271 4842.038086 322.502197 L 4842.038086 281.763062 L 4886.96875 281.763062 C 4918.962402 281.913086 4944.873535 307.79895 4945.04834 339.792725 M 4842.038086 207.134399 C 4847.250488 208.684326 4852.225098 210.934204 4856.837402 213.817261 L 4904.205078 213.817261 C 4890.09375 191.977051 4867.611816 176.911255 4842.038086 172.182373 L 4842.038086 131.709961 L 4886.96875 131.709961 C 4919.041992 131.680786 4945.069336 157.662476 4945.094238 189.743774 C 4945.123535 221.816772 4919.141602 247.84436 4887.068848 247.873535 L 4886.96875 247.873535 L 4842.038086 247.873535 Z M 4759.297363 149.213013 C 4770.763672 137.967896 4786.195801 131.680786 4802.257324 131.709961 L 4807.986328 131.709961 L 4807.986328 172.182373 C 4769.526367 179.319458 4739.432129 209.409302 4732.294922 247.873535 L 4660.583008 247.873535 Z"/>
</svg>
